<?xml version="1.0" encoding="utf-8"?>
<!-- Generator: Adobe Illustrator 22.1.0, SVG Export Plug-In . SVG Version: 6.00 Build 0)  -->
<svg version="1.1" id="圖層_1" xmlns="http://www.w3.org/2000/svg" xmlns:xlink="http://www.w3.org/1999/xlink" x="0px" y="0px"
	 viewBox="0 0 123 41" style="enable-background:new 0 0 123 41;" xml:space="preserve">
<style type="text/css">
	.st0{fill:#CC404C;}
	.st1{fill:#4CBEEC;}
	.st2{fill:#73CDF0;}
	.st3{fill:#DCE15E;}
	.st4{fill:#F6C550;}
	.st5{fill:#F1A453;}
	.st6{fill:#E9774B;}
	.st7{fill:#84A84D;}
	.st8{fill:#6841AB;}
	.st9{fill:#3D8CC6;}
	.st10{fill:#2D2E6C;}
</style>
<g>
	<g>
		<g>
			<path class="st0" d="M47,0.9c0-0.2-0.2-0.5-0.4-0.6c-0.2-0.1-0.5,0-0.7,0.1l-5,4.7c-0.2,0.2-0.2,0.4-0.2,0.7
				C40.8,6,41,6.2,41.3,6.2l1.4,0.1l-0.8,1.8L39.8,13c-0.1,0.2-0.1,0.3,0,0.5c0.1,0.2,0.2,0.3,0.3,0.3l1.1,0.5c0.1,0,0.2,0,0.2,0.1
				c0.1,0,0.2,0,0.2,0c0.2-0.1,0.3-0.2,0.3-0.3l2.1-4.9l0.8-1.8l1.2,1c0.2,0.2,0.4,0.2,0.7,0.1C47,8.2,47.1,8,47.1,7.7L47,0.9z"/>
			<path class="st1" d="M27.3,26.7l0.5,1.5c0.1,0.2,0.3,0.4,0.5,0.4c0.2,0,0.5-0.1,0.6-0.3l3.5-5.9c0.1-0.2,0.1-0.5,0-0.7
				c-0.1-0.2-0.4-0.3-0.6-0.3L25,22.8c-0.2,0-0.4,0.2-0.5,0.5c-0.1,0.2,0,0.5,0.3,0.6l1.1,0.8l-5.5,3.9c0.2,0.8,0.5,1.6,0.9,2.4
				c0,0,0.1,0,0.1,0L27.3,26.7z"/>
			<path class="st2" d="M27.9,35.8c0.1,0.2,0.3,0.4,0.5,0.4c0.2,0,0.5-0.1,0.6-0.3l3.2-6.1c0.1-0.2,0.1-0.5-0.1-0.7
				c-0.2-0.2-0.4-0.3-0.6-0.2l-6.7,1.7c-0.2,0.1-0.4,0.3-0.5,0.5c0,0.2,0.1,0.5,0.3,0.6l1.2,0.7l-2.4,1.9c0.5,0.7,1.1,1.3,1.7,1.8
				l2.3-1.8L27.9,35.8z"/>
			<path class="st3" d="M36.3,39.3c0.2,0.1,0.5,0.1,0.7-0.1c0.2-0.2,0.2-0.4,0.2-0.7L34.9,32c-0.1-0.2-0.3-0.4-0.5-0.4
				c-0.2,0-0.5,0.1-0.6,0.3l-3.3,6c-0.1,0.2-0.1,0.5,0.1,0.7c0.2,0.2,0.4,0.3,0.7,0.2l1.3-0.3l-0.1,1.7c0.8,0.2,1.6,0.4,2.4,0.5
				l0.2-2L36.3,39.3z"/>
			<path class="st4" d="M42.8,33.4c0.2,0,0.5-0.1,0.6-0.3c0.1-0.2,0.1-0.5,0-0.7l-3.7-5.8c-0.1-0.2-0.4-0.3-0.6-0.3
				c-0.2,0-0.4,0.2-0.5,0.4l-1.9,6.6c-0.1,0.2,0,0.5,0.2,0.7c0.2,0.2,0.5,0.2,0.7,0.1l1.2-0.6l1,6.9c0.8-0.2,1.6-0.4,2.4-0.7
				l-0.9-6.7L42.8,33.4z"/>
			<path class="st5" d="M49.1,28.9c0.2,0,0.5-0.1,0.6-0.4c0.1-0.2,0.1-0.5-0.1-0.7L45,22.8c-0.2-0.2-0.4-0.3-0.7-0.2
				c-0.2,0.1-0.4,0.3-0.4,0.5L43.2,30c0,0.3,0.1,0.5,0.3,0.6c0.2,0.1,0.5,0.1,0.7-0.1l1.1-0.8l2.3,6.9c0,0,0,0,0,0
				c0.7-0.6,1.4-1.3,2-2l-1.9-5.8L49.1,28.9z"/>
			<path class="st6" d="M45.2,20.1c0.2,0.1,0.5,0,0.7-0.1l1-1l3.2,6.5c0.1,0.1,0.2,0.3,0.4,0.3c0.2,0.1,0.3,0,0.5,0l1.1-0.5
				c0.1,0,0.1-0.1,0.2-0.1c0.1-0.1,0.1-0.1,0.1-0.2c0.1-0.2,0-0.3,0-0.5L49,17.9l1.5-0.2c0.2,0,0.4-0.2,0.5-0.5
				c0.1-0.2,0-0.5-0.2-0.7l-5.3-4.4c-0.2-0.2-0.5-0.2-0.7-0.1c-0.2,0.1-0.4,0.3-0.4,0.6l0.2,6.9C44.8,19.8,44.9,20.1,45.2,20.1"/>
			<path class="st7" d="M39.6,23.5c0.2,0.2,0.4,0.2,0.7,0.1c0.2-0.1,0.4-0.3,0.4-0.6l-0.1-6.8c0-0.2-0.2-0.5-0.4-0.6
				c-0.2-0.1-0.5,0-0.7,0.1l-5,4.7c-0.2,0.2-0.2,0.4-0.2,0.7c0.1,0.2,0.3,0.4,0.6,0.4l1.4,0.1l-2.8,6.7c-0.1,0.2-0.1,0.3,0,0.5
				c0.1,0.2,0.2,0.3,0.3,0.3l1.1,0.5c0.1,0,0.2,0,0.2,0.1c0.1,0,0.2,0,0.2,0c0.2-0.1,0.3-0.2,0.3-0.3l2.9-6.7L39.6,23.5z"/>
			<path class="st8" d="M33.7,14.2c0,0.2,0.2,0.5,0.4,0.6c0.2,0.1,0.5,0,0.7-0.1l4.8-4.8c0.2-0.2,0.2-0.4,0.1-0.7
				c-0.1-0.2-0.3-0.4-0.6-0.4l-6.9-0.4c-0.3,0-0.5,0.1-0.6,0.3c-0.1,0.2-0.1,0.5,0.1,0.7l0.9,1L25.9,13c-0.2,0.1-0.3,0.2-0.3,0.3
				c-0.1,0.2-0.1,0.3,0,0.5l0.4,1.1c0,0.1,0.1,0.1,0.1,0.2c0.1,0.1,0.1,0.1,0.2,0.1c0.2,0.1,0.3,0.1,0.5,0l6.8-2.6L33.7,14.2z"/>
			<path class="st9" d="M24.3,21.7c0,0.2,0.1,0.5,0.4,0.6c0.2,0.1,0.5,0.1,0.7-0.1l5.1-4.6c0.2-0.2,0.3-0.4,0.2-0.7
				c-0.1-0.2-0.3-0.4-0.5-0.4l-6.8-0.7c-0.2,0-0.5,0.1-0.6,0.3c-0.1,0.2-0.1,0.5,0,0.7l0.8,1.1l-2.9,0.9c-0.3,0.9-0.5,1.8-0.7,2.8
				l4.3-1.4L24.3,21.7z"/>
		</g>
		<g>
			<path class="st8" d="M69.4,20.9c-0.3-0.2-0.6-0.3-0.8-0.3c-0.1,0-0.3,0-0.5,0.1c-0.2,0.1-0.4,0.2-0.5,0.3
				c-0.2,0.2-0.3,0.4-0.4,0.7c-0.1,0.3-0.2,0.7-0.4,1.1l-1.3,4.9l-0.6,2.1c-0.1,0.3-0.1,0.5-0.1,0.6c0,0.2,0.1,0.5,0.2,0.6
				c0,0.1,0.2,0.2,0.3,0.3c0.2,0.2,0.4,0.2,0.6,0.2c0.2,0,0.4-0.1,0.6-0.2c0.3-0.1,0.5-0.3,0.6-0.5c0.3-0.4,0.4-0.7,0.5-0.9l0-0.1
				l0,0c0,0,0,0,0,0c0,0,0,0,0-0.1c0,0,0,0,0,0l0,0l0,0c0,0,0-0.1,0-0.1c0,0,0-0.1,0-0.1c0,0,0,0,0-0.1l0,0l0,0c0-0.2,0-0.5,0.1-0.7
				c0,0,0-0.1,0-0.1c0-0.1,0.1-0.4,0.2-0.7l0.4-1.6c0.1-0.3,0.2-0.7,0.3-1.1c0.1-0.2,0.1-0.4,0.2-0.5c0-0.1,0.1-0.2,0.1-0.3l0.1-0.3
				c0-0.1,0.1-0.3,0.2-0.4c0-0.1,0.1-0.3,0.2-0.4c0-0.1,0.1-0.3,0.1-0.3c0.1-0.2,0.1-0.3,0.2-0.5c0-0.1,0.1-0.2,0.1-0.3
				c0,0,0-0.1,0-0.1c0-0.2,0-0.4-0.1-0.6C69.7,21.1,69.6,21,69.4,20.9"/>
			<path class="st8" d="M78.7,20.1c-0.5,0-1,0.1-1.5,0.3c-0.4,0.1-0.8,0.4-1.1,0.6c0-0.2,0.1-0.3,0.2-0.5c0-0.2,0.1-0.3,0.1-0.5
				c0.1-0.2,0.1-0.4,0.2-0.6c0.1-0.4,0.2-0.8,0.4-1.2l0.3-1.2c0.1-0.5,0.3-0.8,0.4-1.1c0.1-0.2,0.2-0.3,0.2-0.4c0-0.1,0-0.1,0.1-0.1
				c0,0,0-0.1,0-0.1c0.1-0.3-0.1-0.5-0.4-0.7c-0.3-0.1-0.6-0.2-0.8-0.2c-0.3,0-0.7,0.1-1.2,0.4c-0.3,0.2-0.4,0.3-0.6,0.4
				c-0.2,0.2-0.3,0.3-0.3,0.5c0,0.2,0,0.4,0,0.6c0,0.2-0.1,0.4-0.1,0.7c-0.1,0.3-0.1,0.7-0.2,1l0,0.1c-0.1,0.4-0.2,0.8-0.3,1.2
				c-0.1,0.3-0.1,0.5-0.2,0.7c0,0.1,0,0.2-0.1,0.3c0,0,0,0.1-0.1,0.2c-0.1,0.2-0.1,0.4-0.2,0.8c-0.2,0.5-0.3,1.1-0.5,1.8l0,0
				c-0.2,0.7-0.4,1.3-0.6,1.9c-0.2,0.7-0.3,1.2-0.4,1.6c-0.1,0.3-0.2,0.6-0.2,1c-0.1,0.4-0.2,0.8-0.3,1.2c-0.1,0.4-0.2,0.8-0.2,1.1
				C71,30,71,30.2,71,30.3c-0.1,0.3-0.1,0.6-0.1,0.8c0,0.2,0.1,0.4,0.2,0.6c0.2,0.3,0.5,0.4,0.8,0.4c0.2,0,0.4,0,0.6-0.1
				c0.2-0.1,0.3-0.2,0.6-0.4c0.1-0.2,0.3-0.4,0.4-0.6l0-0.1c0-0.1,0.1-0.2,0.1-0.3c0.2,0.3,0.5,0.5,0.9,0.7c0.5,0.2,1,0.3,1.6,0.3
				c0.8,0,1.6-0.2,2.3-0.6c0.7-0.4,1.2-0.9,1.7-1.5c0.5-0.6,0.9-1.3,1.2-1.9c0.3-0.7,0.6-1.3,0.7-1.9c0.4-1.6,0.4-2.9-0.2-3.9
				C81.3,20.6,80.2,20.1,78.7,20.1 M79.4,25.3c-0.4,1.5-0.9,2.5-1.5,3.2c-0.6,0.7-1.2,1-1.9,1c-0.7,0-1.2-0.3-1.4-0.8
				c-0.2-0.5-0.2-1.3,0.1-2.4c0.1-0.4,0.3-0.8,0.5-1.3c0.2-0.4,0.5-0.8,0.8-1.3c0.3-0.4,0.7-0.7,1.1-1c0.4-0.3,0.9-0.4,1.4-0.4
				c0.5,0,0.9,0.2,1.1,0.7C79.7,23.5,79.7,24.3,79.4,25.3"/>
			<path class="st8" d="M93.7,22.1c-0.3-0.5-0.6-0.9-1.1-1.2c-0.5-0.3-1.1-0.5-1.9-0.5c-0.4,0-0.9,0.1-1.6,0.2
				c-0.7,0.2-1.4,0.4-2,0.7c-0.6,0.3-1.1,0.6-1.5,0.9c-0.5,0.3-0.8,0.7-0.9,1.1c-0.1,0.3-0.1,0.6,0.1,0.9c0.2,0.3,0.4,0.4,0.8,0.4
				c0.2,0,0.4,0,0.5-0.1c0.1,0,0.2-0.1,0.4-0.2l0.1-0.1c0,0,0.1,0,0.1-0.1c0,0,0.1-0.1,0.1-0.1c0,0,0.1,0,0.1-0.1
				c0,0,0.1-0.1,0.1-0.1c0,0,0.1,0,0.1-0.1c0,0,0.1-0.1,0.1-0.1c0.1,0,0.1-0.1,0.2-0.2c0.4-0.3,0.7-0.5,1.1-0.7
				c0.4-0.2,0.9-0.3,1.4-0.3c0.3,0,0.5,0.1,0.8,0.2c0.2,0.1,0.4,0.3,0.5,0.5c0.1,0.2,0.2,0.5,0.2,0.7c0,0.2,0,0.5,0,0.7
				c-0.2,0-0.4,0-0.7,0.1c-0.2,0-0.4,0-0.6,0.1c-0.6,0.1-1.2,0.2-1.7,0.3c-0.6,0.1-1.2,0.3-1.8,0.4c-0.6,0.2-1.2,0.4-1.6,0.7
				c-0.6,0.3-1,0.6-1.3,1c-0.4,0.4-0.6,0.8-0.8,1.3c-0.1,0.5-0.1,0.9,0,1.3c0.1,0.4,0.4,0.7,0.7,0.9c0.3,0.2,0.8,0.4,1.3,0.6
				c0.4,0.1,1,0.2,1.7,0.2c0.6,0,1.1-0.1,1.7-0.2c0.5-0.1,1-0.3,1.5-0.6c-0.1,0.4-0.1,0.7,0,0.9c0.1,0.4,0.4,0.6,1,0.6
				c0.3,0,0.5,0,0.7-0.2c0.2-0.1,0.4-0.2,0.5-0.4c0.1-0.2,0.2-0.3,0.3-0.5c0-0.1,0-0.2,0.1-0.2c0-0.1,0.1-0.2,0.1-0.3
				c0-0.1,0.1-0.3,0.1-0.4c0-0.1,0.1-0.3,0.1-0.4l0.2-0.9c0.1-0.6,0.3-1.1,0.4-1.7c0.1-0.5,0.3-1.1,0.4-1.6c0.2-0.6,0.2-1.1,0.2-1.8
				C94.1,23.2,93.9,22.6,93.7,22.1 M91,26.6l-0.4,1.6c-0.5,0.4-1,0.8-1.6,1c-0.6,0.2-1.2,0.4-1.8,0.4c-0.2,0-0.4,0-0.6-0.1
				c-0.2,0-0.3-0.1-0.5-0.2c-0.2-0.1-0.2-0.2-0.3-0.3c-0.1-0.1-0.1-0.2,0-0.4c0.1-0.4,0.4-0.7,0.8-0.9c0.5-0.3,0.9-0.5,1.4-0.6
				c0.6-0.1,1.1-0.2,1.7-0.3C90.2,26.7,90.6,26.7,91,26.6"/>
			<path class="st0" d="M122.7,22.4c-0.3-0.5-0.7-0.9-1.2-1.2c-0.5-0.2-1-0.4-1.5-0.6c-0.6-0.1-1.2-0.2-1.7-0.2
				c-0.6,0-1.3,0.2-1.9,0.6c-0.7,0.4-1.3,0.9-1.8,1.6c-0.6,0.7-1.1,1.4-1.5,2.1c-0.4,0.8-0.8,1.5-1,2.3c-0.2,0.6-0.2,1.2-0.2,1.7
				c0,0.6,0.2,1.1,0.5,1.6c0.3,0.5,0.7,0.8,1.3,1.1c0.6,0.3,1.3,0.4,2.2,0.4c0.4,0,1,0,1.7-0.1c0.6-0.1,1.1-0.2,1.7-0.4
				c0.6-0.2,1-0.4,1.4-0.7c0.4-0.3,0.7-0.7,0.8-1c0-0.2,0-0.4-0.2-0.6c-0.2-0.1-0.4-0.2-0.7-0.2c0,0-0.1,0-0.2,0l-0.1,0
				c-0.1,0-0.2,0.1-0.3,0.1l-0.1,0.1c-0.5,0.3-1,0.5-1.5,0.7c-0.6,0.2-1.1,0.3-1.7,0.3c-0.8,0-1.4-0.3-1.7-0.8
				c-0.3-0.5-0.3-1.1-0.2-1.9c0.2,0.1,0.5,0.3,0.8,0.3c0.3,0.1,0.7,0.2,1.3,0.2c0.7,0,1.3-0.1,2-0.3c0.7-0.2,1.3-0.5,1.8-0.8
				c0.5-0.3,1-0.7,1.4-1.1c0.4-0.4,0.7-0.9,0.8-1.3C123,23.6,123,23,122.7,22.4 M117.2,25.9c-0.6,0-1-0.1-1.2-0.3
				c-0.2-0.2-0.4-0.4-0.4-0.6c0.3-0.7,0.8-1.2,1.3-1.7c0.5-0.5,1-0.7,1.5-0.7c0.3,0,0.5,0,0.8,0.1c0.3,0.1,0.5,0.2,0.7,0.3
				c0.2,0.2,0.3,0.3,0.4,0.6c0.1,0.2,0.1,0.5,0,0.7c-0.1,0.2-0.2,0.4-0.4,0.6c-0.3,0.2-0.5,0.4-0.8,0.5c-0.3,0.1-0.6,0.3-1,0.4
				C117.9,25.9,117.6,25.9,117.2,25.9"/>
			<path class="st0" d="M113.1,15.9c-0.4-0.3-0.7-0.4-0.9-0.4c-0.2,0-0.4,0.1-0.7,0.1c-0.3,0.1-0.6,0.2-0.8,0.3
				c-0.4,0.3-0.9,0.7-1.3,1.3c-0.5,0.6-1,1.3-1.5,2c-0.5,0.7-1,1.5-1.6,2.5c-0.2,0.3-0.4,0.6-0.5,0.9c-0.4,0.6-0.7,1.1-1,1.7
				c-0.2,0.3-0.4,0.7-0.6,1c-0.3,0.4-0.5,0.8-0.7,1.1c-0.3,0.4-0.6,0.8-0.8,1.1c-0.3-0.9-0.5-1.8-0.6-2.8c-0.1-1-0.2-1.9-0.2-2.9
				c0-1,0.1-2,0.2-3c0-0.3,0.1-0.7,0.2-1.1c0.1-0.4,0.1-0.8,0.1-1.1c0-0.2-0.1-0.3-0.2-0.5c-0.1-0.1-0.2-0.2-0.4-0.3
				c-0.2-0.1-0.3-0.1-0.5-0.2l0,0c-0.2,0-0.3,0-0.5,0c-0.4,0-0.8,0.1-1,0.3c-0.2,0.2-0.3,0.4-0.4,0.7l-0.1,0.4l0,0l0,0.1
				c-0.6,1.2-1.1,2.5-1.5,3.8c-0.5,1.3-0.9,2.8-1.3,4.5l-0.4,1.6c-0.1,0.3-0.2,0.6-0.2,1c-0.1,0.3-0.2,0.7-0.2,1
				c-0.1,0.5-0.2,0.9-0.3,1.4c0,0.3-0.1,0.6,0,0.7c0,0.5,0.3,0.8,0.8,0.8c0.1,0,0.2,0,0.4-0.1c0.2,0,0.3-0.1,0.5-0.1
				c0.2-0.1,0.3-0.2,0.5-0.3c0.1-0.1,0.2-0.2,0.3-0.4c0-0.1,0-0.3,0.1-0.4l0-0.1c0-0.1,0-0.2,0-0.4c0-0.2,0-0.5,0-0.7
				c0-0.5,0.2-1.1,0.4-2.2c0.2-1,0.5-2.1,0.9-3.4c0.1-0.5,0.3-0.9,0.4-1.4c0.1-0.2,0.1-0.4,0.2-0.7c0,0.3,0,0.6,0,0.9
				c0,0.5,0,1.1,0,1.8c0.1,1.2,0.2,2.2,0.5,3.3c0.2,1.1,0.6,2,1.1,2.7c0.1,0.3,0.4,0.4,0.8,0.4c0.2,0,0.5-0.1,0.7-0.2
				c0.2-0.1,0.4-0.3,0.6-0.4c0.1-0.1,0.3-0.3,0.6-0.7l0,0c0.2-0.3,0.4-0.6,0.6-0.9l0.6-0.9l0.1-0.2c0.1-0.2,0.2-0.4,0.3-0.5l2.2-3.6
				c0.5-0.9,1.2-1.9,1.9-2.8c-0.1,0.4-0.2,0.7-0.4,1c-0.2,0.6-0.4,1.2-0.6,1.9l-0.5,1.9c-0.1,0.4-0.2,0.7-0.3,1.1l-0.2,0.8
				c0,0.1-0.1,0.4-0.2,0.7c-0.1,0.3-0.2,0.7-0.2,1.1c-0.1,0.4-0.1,0.8-0.2,1.1c-0.1,0.4-0.1,0.7,0,0.9c0,0.3,0.1,0.5,0.3,0.7
				c0.2,0.2,0.4,0.3,0.8,0.3c0.1,0,0.2,0,0.2,0l0.2,0c0.1,0,0.2,0,0.3-0.1c0.1,0,0.1-0.1,0.2-0.1c0,0,0.1-0.1,0.2-0.1
				c0.1-0.1,0.2-0.2,0.2-0.3c0-0.1,0-0.3,0-0.5c0,0,0-0.1,0-0.1l0-0.1l0,0c0,0,0-0.1,0-0.1l0,0l0,0c0-0.3-0.1-0.5,0-0.8
				c0-0.3,0-0.5,0.1-0.8c0.1-0.5,0.2-0.9,0.3-1.4c0.1-0.5,0.2-0.9,0.3-1.4l0.9-3.2c0.2-0.9,0.5-1.7,0.7-2.4c0.3-0.8,0.6-1.5,0.9-2.3
				c0-0.1,0.1-0.2,0.1-0.3l0-0.1c0.1-0.1,0.1-0.3,0.2-0.5c0.1-0.2,0.1-0.3,0.2-0.4l0,0c0-0.1,0-0.1,0.1-0.2c0-0.1,0-0.1,0.1-0.1
				c0-0.2,0-0.3,0-0.4C113.2,15.9,113.2,15.9,113.1,15.9"/>
			<path class="st8" d="M67.7,16.9c-0.8,0.2-1.5,0.2-2.1,0.3c-0.7,0.1-1.4,0.1-2.1,0.2l-0.2,0.5c-0.3,1-0.7,1.9-1,2.9
				c-0.4,1.1-0.7,2.2-1.1,3.4l-0.7,2.5c-0.2,0.7-0.4,1.5-0.5,2.5c0,0.1,0,0.2,0,0.3l0,0l0,0c0,0.1,0,0.2,0,0.3c0,0.2,0,0.3,0,0.4
				l0,0.1c0,0.1,0,0.2-0.1,0.3c-0.1,0.4-0.3,0.6-0.6,0.8c-0.4,0.2-0.7,0.3-0.9,0.3c-0.1,0-0.3,0-0.4,0c-0.2-0.1-0.3-0.1-0.4-0.2
				c-0.1,0-0.3-0.1-0.4-0.3c-0.1-0.1-0.1-0.3-0.1-0.5c0-0.3,0.1-0.8,0.2-1.6c0.1-0.7,0.4-1.6,0.6-2.5c0.4-1.6,0.9-3.1,1.4-4.6
				c0.5-1.5,1-2.9,1.6-4.4c-0.4,0-0.7,0.1-1,0.1c-0.4,0-0.8,0.1-1.2,0.1l-0.8,0.1c-0.3,0-0.6,0.1-0.9,0.1c-0.2,0-0.4,0-0.5-0.1
				c-0.2-0.1-0.3-0.2-0.4-0.4c-0.1-0.1-0.2-0.3-0.3-0.5c-0.1-0.1-0.1-0.3,0-0.5c0-0.2,0.1-0.3,0.3-0.4c0.1-0.1,0.3-0.2,0.4-0.3
				c0.1-0.1,0.3-0.1,0.5-0.1c0.1,0,0.1,0,0.2,0l0.2,0c0.4,0,0.8,0,1.3-0.1c0.4,0,0.8,0,1.2,0c1,0,1.9-0.1,3-0.2l0.1,0
				c1-0.1,2.1-0.2,3.1-0.4c0.1,0,0.3-0.1,0.4-0.1c0.1,0,0.2-0.1,0.3-0.1l0.1,0c0.1,0,0.2,0,0.2-0.1c0.1,0,0.1,0,0.2-0.1
				c0.2,0,0.3-0.1,0.5-0.1c0.1,0,0.3,0,0.4,0.1l0.1,0l0.4,0.3c0,0,0.1,0.1,0.1,0.1c0.1,0.1,0.1,0.2,0.2,0.3c0.1,0.2,0.1,0.4,0,0.5
				c0,0,0,0.1,0,0.1l-0.7,0.7"/>
			<path class="st8" d="M68.2,17.9c0-0.1-0.1,0.2-0.2,0.4c-0.1,0.5,0,1,0.3,1.3c0.3,0.3,0.7,0.5,1.2,0.5c0.5,0,0.8-0.1,1.2-0.4
				c0.4-0.3,0.6-0.6,0.7-1.1c0.1-0.5,0.1-0.9-0.3-1.3c-0.2-0.2-0.4-0.3-0.6-0.4c-0.6-0.2-1.2-0.2-1.9,0.3
				C68.8,17.3,68.3,17.7,68.2,17.9z"/>
		</g>
	</g>
	<g>
		<path class="st10" d="M2.4,18.7c-0.4,1.5-0.7,2.7-1.1,3.7l-1.3-0.2c0.1-0.2,0.2-0.6,0.3-1c0.4-1.1,0.7-2,0.8-2.6L2.4,18.7z
			 M8.3,11l0.3-1.5h1.7l0.3-0.9l1.9,0.2l-0.3,0.7h3.3l-0.4,2.2h0.9l-0.3,1.5H7.3l0.2-1.1c-0.2,0.3-0.6,0.7-1.2,1.3
			c-0.6,0.7-1.1,1.2-1.4,1.6l1.2-0.4c0.1,0.3,0.1,0.9,0.2,1.6c0.1,0.7,0.2,1.2,0.2,1.6l-1.5,0.4L5,17.5c-0.1,0-0.2,0-0.3,0l-0.9,5.3
			H1.9l0.9-5.2c0,0-0.1,0.1-0.2,0.1c-0.4,0-0.8,0.1-1.3,0.2L1.1,16h0.8c0.5-0.5,1.1-1.2,1.8-2.1c-0.4-0.3-1.1-0.9-2-1.6
			c-0.1,0-0.1-0.1-0.2-0.1l1.2-1.3l0.3,0.2c0.4-0.5,1-1.3,1.6-2.4l1.9,0.6c-0.8,1-1.5,1.9-2.2,2.7L5,12.5c0.5-0.6,1-1.2,1.4-1.7
			l1.5,1h1.5L9.6,11H8.3z M4.8,15.9l-0.1-0.7l-0.6,0.7H4.8z M7.7,13.7h7.4l-0.6,3.5h-2.3l-0.1,0.5h2.6l-0.3,1.5h-2.6L11.7,20h2.9
			l-0.2,1.4h-2.9l-0.2,1.3h-2l0.2-1.3H5.9l0,0.1l-1.2,0.3c0-0.2,0-0.4,0-0.6c-0.1-1.2-0.1-2.1-0.2-2.6l1.1-0.2
			c0.1,1,0.2,1.9,0.3,2.7l0.2-1h0.5L7,17.7h3.1l0.1-0.5H7.1L7.7,13.7z M8.4,19.2L8.3,20h1.4l0.1-0.8H8.4z M9.4,15.2l-0.1,0.6h3.5
			l0.1-0.6H9.4z M13.3,11h-1.7l-0.3,0.7h1.9L13.3,11z"/>
		<path class="st10" d="M3,38.4H0.6L2,30.5h10.7L12,29.9C9.6,30,6.2,30,1.9,30.2l0.1-1.7h1.2c0.4-0.3,0.9-0.7,1.3-1H1.3l0.3-1.8h5.8
			l0.2-1.2h2.3l-0.2,1.2h5.8l-0.3,1.8h-2.9c0.1,0.1,0.3,0.2,0.5,0.3c0.6,0.5,1.3,1,2,1.5L13,30.5h0.3l-1,5.6c-0.2,1.4-1,2.1-2.6,2.2
			c-0.8,0-1.7,0-2.9,0l-0.2-1.7c0.6,0,1.4,0.1,2.3,0.1c0.6,0,0.9-0.1,0.9-0.5H3.4L3,38.4z M3.8,34.1l-0.1,0.6h6.6l0.1-0.6H3.8z
			 M4.2,32L4,32.7h6.6l0.1-0.6H4.2z M6,28.4c1.9,0,3.2,0,4.1-0.1L9,27.4H7.3L6,28.4z"/>
	</g>
</g>
</svg>
